<svg t="1662374312412" class="icon" viewBox="0 0 1024 1024" version="1.1" xmlns="http://www.w3.org/2000/svg" p-id="11991" width="200" height="200"><path d="M748.8 281.941333l22.058667-44.672A379.946667 379.946667 0 0 1 887.466667 512c0 209.493333-168.106667 379.264-375.466667 379.264-27.392 0-54.698667-2.986667-81.450667-8.96l33.962667-41.898667c15.488 2.304 31.36 3.413333 47.488 3.413334 181.461333 0 328.533333-148.565333 328.533333-331.818667 0-89.301333-34.986667-170.410667-91.733333-230.058667zM362.666667 216.362667A332.16 332.16 0 0 0 183.466667 512a332.416 332.416 0 0 0 132.181333 266.069333l-12.245333 49.365334A380.117333 380.117333 0 0 1 136.533333 512c0-165.248 104.704-305.92 250.709334-357.845333L362.666667 216.362667zM465.066667 85.333333h328.533333l-164.266667 331.861334h117.333334L324.266667 938.666667l93.866666-379.264H277.333333L465.066667 85.333333z" fill="#1afa29" p-id="11992"></path></svg>