<svg t="1662371906850" class="icon" viewBox="0 0 1024 1024" version="1.1" xmlns="http://www.w3.org/2000/svg" p-id="1480" width="200" height="200"><path d="M640 341.333333h192A64 64 0 0 1 896 405.333333v170.666667a64 64 0 0 1-64 64H640v192a64 64 0 0 1-64 64h-170.666667A64 64 0 0 1 341.333333 832V640H149.333333A64 64 0 0 1 85.333333 576v-170.666667A64 64 0 0 1 149.333333 341.333333H341.333333V149.333333A64 64 0 0 1 405.333333 85.333333h170.666667A64 64 0 0 1 640 149.333333V341.333333z m192 42.666667h-213.333333a21.333333 21.333333 0 0 1-21.333334-21.333333v-213.333334a21.333333 21.333333 0 0 0-21.333333-21.333333h-170.666667a21.333333 21.333333 0 0 0-21.333333 21.333333v213.333334a21.333333 21.333333 0 0 1-21.333333 21.333333h-213.333334a21.333333 21.333333 0 0 0-21.333333 21.333333v170.666667a21.333333 21.333333 0 0 0 21.333333 21.333333h213.333334a21.333333 21.333333 0 0 1 21.333333 21.333334v213.333333a21.333333 21.333333 0 0 0 21.333333 21.333333h170.666667a21.333333 21.333333 0 0 0 21.333333-21.333333v-213.333333a21.333333 21.333333 0 0 1 21.333334-21.333334h213.333333a21.333333 21.333333 0 0 0 21.333333-21.333333v-170.666667a21.333333 21.333333 0 0 0-21.333333-21.333333z m-360.405333-201.557333a21.333333 21.333333 0 0 1 38.144 0l21.333333 42.666666A21.333333 21.333333 0 0 1 512 256h-42.666667a21.333333 21.333333 0 0 1-19.072-30.890667l21.333334-42.666666z m19.072 57.258666L503.850667 213.333333h-26.368l13.184 26.368z m19.072 559.189334a21.333333 21.333333 0 0 1-38.144 0l-21.333334-42.666667A21.333333 21.333333 0 0 1 469.333333 725.333333h42.666667a21.333333 21.333333 0 0 1 19.072 30.890667l-21.333333 42.666667z m-19.072-57.258667l-13.184 26.368h26.368l-13.184-26.368z m308.224-270.08a21.333333 21.333333 0 0 1 0 38.186667l-42.666667 21.333333A21.333333 21.333333 0 0 1 725.333333 512v-42.666667a21.333333 21.333333 0 0 1 30.890667-19.072l42.666667 21.333334z m-57.258667 19.114667l26.368 13.184v-26.368l-26.368 13.184z m-559.189333 19.072a21.333333 21.333333 0 0 1 0-38.144l42.666666-21.333334A21.333333 21.333333 0 0 1 256 469.333333v42.666667a21.333333 21.333333 0 0 1-30.890667 19.072l-42.666666-21.333333z m57.258666-19.072L213.333333 477.482667v26.368l26.368-13.184z" fill="currentColor" p-id="1481"></path></svg>